<?xml version="1.0"  standalone="no"?>
<!DOCTYPE svg PUBLIC "-//W3C//DTD SVG 20010904//EN"
 "http://www.w3.org/TR/2001/REC-SVG-20010904/DTD/svg10.dtd">
<svg version="1.0" xmlns="http://www.w3.org/2000/svg"
 width="512.000000pt" height="512.000000pt" viewBox="0 0 512.000000 512.000000"
 preserveAspectRatio="xMidYMid meet">

<g transform="translate(0.000000,512.000000) scale(0.100000,-0.100000)"
fill="#ffffff" stroke="none">
<path d="M681 4464 c-169 -46 -302 -180 -346 -351 -23 -86 -23 -3020 0 -3106
45 -173 178 -307 350 -352 52 -13 269 -15 1795 -15 1892 0 1785 -3 1902 56
116 59 220 196 247 326 8 36 11 273 9 745 -3 681 -3 692 -24 719 -47 64 -63
69 -214 69 -151 0 -167 -5 -214 -69 -21 -27 -21 -41 -26 -646 -5 -605 -5 -619
-26 -646 -11 -15 -33 -37 -48 -48 l-27 -21 -1579 0 -1579 0 -27 21 c-15 11
-37 33 -48 48 -21 27 -21 30 -21 1366 0 1336 0 1339 21 1366 11 15 33 37 48
48 27 20 42 21 566 26 524 5 539 6 566 26 64 47 69 63 69 214 0 151 -5 167
-69 214 -27 21 -38 21 -649 23 -519 2 -631 -1 -676 -13z"/>
<path d="M2975 4466 c-37 -17 -70 -52 -84 -89 -7 -17 -11 -126 -11 -281 l0
-253 -102 -7 c-632 -41 -1047 -395 -1154 -986 -13 -69 -18 -152 -18 -302 -1
-227 0 -232 68 -282 39 -29 133 -29 172 0 52 39 66 67 75 157 23 225 157 388
366 442 44 12 120 15 325 15 l267 0 3 -269 c3 -254 4 -271 24 -297 38 -52 71
-69 132 -69 l57 0 815 489 c448 268 829 503 847 521 56 59 56 151 0 210 -18
18 -398 252 -846 521 -877 525 -860 516 -936 480z"/>
</g>
</svg>
